<svg width="64" height="65" viewBox="0 0 64 65" fill="none" xmlns="http://www.w3.org/2000/svg">
<g clip-path="url(#clip0_250_261)">
<path d="M53.4782 45.8072C52.5846 45.5227 51.6282 46.0172 51.3438 46.9117C48.7172 55.1728 41.1226 60.7232 32.4461 60.7232C21.5139 60.7232 12.6198 51.8293 12.6198 40.897C12.6198 29.9648 21.5139 21.0708 32.4461 21.0708C41.1527 21.0708 48.9674 26.8923 51.4502 35.2277C51.7182 36.1271 52.6644 36.6392 53.5637 36.3711C54.4631 36.1031 54.9751 35.1568 54.7071 34.2576C53.4659 30.0906 51.0147 26.2981 47.7348 23.4196V15.8567C47.7349 7.18033 40.6762 0.121582 31.9998 0.121582C30.0646 0.121582 28.1741 0.469207 26.3809 1.15508C25.5044 1.49033 25.0656 2.47246 25.4007 3.34908C25.7359 4.22558 26.7176 4.66433 27.5949 4.32933C28.9988 3.79221 30.4809 3.51996 31.9998 3.51996C38.8023 3.51996 44.3367 9.05421 44.3367 15.8567V20.9452C40.7537 18.7992 36.6911 17.6722 32.4462 17.6722C27.7264 17.6722 23.3321 19.0887 19.6631 21.5168V15.8567C19.6631 13.3951 20.3854 11.0192 21.7521 8.98571C22.2756 8.20683 22.0684 7.15108 21.2896 6.62758C20.5108 6.10433 19.4551 6.31096 18.9314 7.09008C17.1867 9.68596 16.2647 12.7175 16.2647 15.8567V24.2553C11.9236 28.4776 9.22168 34.3771 9.22168 40.8968C9.22168 53.703 19.6401 64.1216 32.4463 64.1216C37.4751 64.1216 42.2607 62.5405 46.2858 59.5493C50.2314 56.6175 53.1004 52.6036 54.5828 47.9415C54.8669 47.0471 54.3724 46.0915 53.4782 45.8072Z" fill="#F38D04"/>
<path d="M31.9997 54.5224C39.5252 54.5224 45.6258 48.4218 45.6258 40.8963C45.6258 33.3708 39.5252 27.2701 31.9997 27.2701C24.4742 27.2701 18.3735 33.3708 18.3735 40.8963C18.3735 48.4218 24.4742 54.5224 31.9997 54.5224Z" fill="#FDEEDA"/>
<path d="M31.9997 56.2228C23.5491 56.2228 16.6738 49.3477 16.6738 40.8969C16.6738 32.4462 23.5491 25.571 31.9997 25.571C40.4503 25.571 47.3256 32.4462 47.3256 40.8969C47.3256 49.3477 40.4502 56.2228 31.9997 56.2228ZM31.9997 28.9695C25.4228 28.9695 20.0723 34.3203 20.0723 40.8969C20.0723 47.4735 25.4228 52.8243 31.9997 52.8243C38.5766 52.8243 43.9271 47.4735 43.9271 40.8969C43.9271 34.3203 38.5766 28.9695 31.9997 28.9695Z" fill="#F38D04"/>
<path d="M31.9999 45.5456C31.5896 45.5456 31.1915 45.3971 30.8806 45.1249L26.3954 41.198C25.6894 40.5799 25.618 39.5062 26.236 38.8002C26.8545 38.094 27.9278 38.0229 28.6338 38.641L31.7949 41.4085L36.177 36.0325C36.77 35.3049 37.8403 35.1961 38.5676 35.7889C39.2949 36.3819 39.404 37.4522 38.8111 38.1796L33.317 44.92C33.0258 45.2775 32.6018 45.501 32.1424 45.5397C32.0946 45.5439 32.0471 45.5456 31.9999 45.5456Z" fill="#F38D04"/>
</g>
<defs>
<clipPath id="clip0_250_261">
<rect width="64" height="64" fill="white" transform="translate(0 0.121582)"/>
</clipPath>
</defs>
</svg>
