<svg width="42" height="65" viewBox="0 0 42 65" fill="none" xmlns="http://www.w3.org/2000/svg">
<path d="M39.682 33.7805C40.7402 33.7805 41.5981 32.9226 41.5981 31.8643V21.5602C41.5981 21.1588 41.472 20.7676 41.2377 20.4416L31.0703 6.30308C30.7103 5.80246 30.1315 5.50558 29.5147 5.50558H22.9163V2.03771C22.9163 0.979457 22.0585 0.121582 21.0002 0.121582C19.942 0.121582 19.0841 0.979457 19.0841 2.03771V5.50558H12.4857C11.8691 5.50558 11.2901 5.80233 10.9301 6.30308L0.762718 20.4416C0.528343 20.7675 0.402344 21.1588 0.402344 21.5602V62.2055C0.402344 63.2637 1.26022 64.1216 2.31847 64.1216H39.6821C40.7403 64.1216 41.5982 63.2637 41.5982 62.2055V42.784C41.5982 41.7257 40.7403 40.8678 39.6821 40.8678C38.6238 40.8678 37.766 41.7257 37.766 42.784V60.2895H4.23447V33.7805H39.682ZM4.23447 22.1776L13.4678 9.33771H19.0841V11.9996C15.6175 12.8597 13.04 15.9963 13.04 19.7252C13.04 24.1143 16.611 27.6853 21.0001 27.6853C25.3892 27.6853 28.9602 24.1143 28.9602 19.7252C28.9602 15.9965 26.3827 12.8597 22.9161 11.9996V9.33771H28.5323L37.7657 22.1776V29.9482H4.23447V22.1776ZM21.0002 15.5972C23.2763 15.5972 25.1282 17.4491 25.1282 19.7252C25.1282 22.0013 23.2763 23.8532 21.0002 23.8532C18.7241 23.8532 16.8722 22.0013 16.8722 19.7252C16.8722 17.449 18.7241 15.5972 21.0002 15.5972Z" fill="#F38D04"/>
<path d="M26.685 44.6392C24.3679 44.6392 23.0918 45.8018 23.0918 47.9128V50.938C23.0918 53.0492 24.3679 54.2117 26.685 54.2117C28.9687 54.2117 30.2783 53.0185 30.2783 50.938V47.9128C30.2783 45.8323 28.9687 44.6392 26.685 44.6392ZM26.0384 47.9127C26.0384 47.4568 26.2138 47.2874 26.6849 47.2874C27.2393 47.2874 27.3529 47.5373 27.3529 47.9127V50.9379C27.3529 51.3133 27.2393 51.5632 26.6849 51.5632C26.2135 51.5632 26.0384 51.3938 26.0384 50.9379V47.9127Z" fill="#F38D04"/>
<path d="M24.6115 36.9052C24.0501 36.9052 23.5813 37.1895 23.3594 37.6613L15.8829 53.0189C15.7871 53.2105 15.7344 53.4174 15.7344 53.6014C15.7344 54.3387 16.3734 55.1279 17.3249 55.1279C17.901 55.1279 18.4313 54.8217 18.6409 54.3722L26.1389 39.0142C26.2439 38.8038 26.2661 38.5813 26.2661 38.4317C26.2659 37.5184 25.4106 36.9052 24.6115 36.9052Z" fill="#F38D04"/>
<path d="M15.3154 37.7787C12.9983 37.7787 11.7222 38.9413 11.7222 41.0523V44.0776C11.7222 46.1886 12.9983 47.3512 15.3154 47.3512C17.599 47.3512 18.9087 46.1581 18.9087 44.0776V41.0523C18.9087 38.9718 17.5989 37.7787 15.3154 37.7787ZM14.6688 41.0523C14.6688 40.5964 14.8442 40.4271 15.3154 40.4271C15.8698 40.4271 15.9834 40.6769 15.9834 41.0523V44.0776C15.9834 44.4529 15.8698 44.7028 15.3154 44.7028C14.844 44.7028 14.6688 44.5334 14.6688 44.0776V41.0523Z" fill="#F38D04"/>
</svg>
