<svg width="60" height="61" viewBox="0 0 60 61" fill="none" xmlns="http://www.w3.org/2000/svg">
<g clip-path="url(#clip0_250_286)">
<path d="M55.8313 60.1209H37.829C35.5306 60.1209 33.6606 58.2511 33.6606 55.9526V37.9503C33.6606 35.6519 35.5305 33.782 37.829 33.782H48.5704C49.5749 33.782 50.3895 34.5964 50.3895 35.6011C50.3895 36.6057 49.5749 37.4202 48.5704 37.4202H37.829C37.5369 37.4202 37.299 37.658 37.299 37.9502V55.9525C37.299 56.2448 37.5369 56.4825 37.829 56.4825H55.8313C56.1235 56.4825 56.3614 56.2447 56.3614 55.9525V46.9514C56.3614 45.9468 57.1759 45.1323 58.1805 45.1323C59.185 45.1323 59.9996 45.9468 59.9996 46.9514V55.9525C59.9997 58.2511 58.1299 60.1209 55.8313 60.1209Z" fill="#F38D04"/>
<path d="M1.81934 22.292V4.28993C1.81934 2.99255 2.87109 1.94067 4.16859 1.94067H22.1709C23.4683 1.94067 24.5202 2.99243 24.5202 4.28993V22.2922C24.5202 23.5895 23.4684 24.6414 22.1709 24.6414H4.16859C2.87121 24.6413 1.81934 23.5894 1.81934 22.292Z" fill="#FDEEDA"/>
<path d="M22.1712 26.4604H4.16885C1.87045 26.4604 0.000488281 24.5906 0.000488281 22.2921V4.28994C0.000488281 1.99143 1.87033 0.121582 4.16885 0.121582H22.1712C24.4696 0.121582 26.3396 1.99143 26.3396 4.28994V22.2922C26.3396 24.5906 24.4697 26.4604 22.1712 26.4604ZM4.16885 3.75979C3.8767 3.75979 3.63881 3.99756 3.63881 4.28982V22.2921C3.63881 22.5844 3.8767 22.8221 4.16885 22.8221H22.1712C22.4633 22.8221 22.7012 22.5843 22.7012 22.2921V4.28994C22.7012 3.99756 22.4633 3.7599 22.1712 3.7599H4.16885V3.75979Z" fill="#F38D04"/>
<path d="M35.4795 22.292V4.28993C35.4795 2.99255 36.5312 1.94067 37.8287 1.94067H55.8311C57.1285 1.94067 58.1803 2.99243 58.1803 4.28993V22.2922C58.1803 23.5895 57.1286 24.6414 55.8311 24.6414H37.8287C36.5314 24.6413 35.4795 23.5894 35.4795 22.292Z" fill="#FDEEDA"/>
<path d="M55.8313 26.4604H37.829C35.5306 26.4604 33.6606 24.5906 33.6606 22.2921V4.28994C33.6606 1.99154 35.5305 0.121582 37.829 0.121582H55.8313C58.1299 0.121582 59.9997 1.99143 59.9997 4.28994V22.2922C59.9997 24.5906 58.1299 26.4604 55.8313 26.4604ZM37.829 3.75979C37.5369 3.75979 37.299 3.99756 37.299 4.28982V22.2921C37.299 22.5844 37.5369 22.8221 37.829 22.8221H55.8313C56.1235 22.8221 56.3614 22.5843 56.3614 22.2921V4.28994C56.3614 3.99756 56.1235 3.7599 55.8313 3.7599H37.829V3.75979Z" fill="#F38D04"/>
<path d="M1.81934 55.9532V37.9511C1.81934 36.6537 2.87109 35.6018 4.16859 35.6018H22.1709C23.4683 35.6018 24.5202 36.6536 24.5202 37.9511V55.9532C24.5202 57.2506 23.4684 58.3024 22.1709 58.3024H4.16859C2.87121 58.3024 1.81934 57.2506 1.81934 55.9532Z" fill="#FDEEDA"/>
<path d="M22.1712 60.1215H4.16885C1.87045 60.1215 0.000488281 58.2517 0.000488281 55.9532V37.9511C0.000488281 35.6527 1.87033 33.7827 4.16885 33.7827H22.1712C24.4696 33.7827 26.3396 35.6526 26.3396 37.9511V55.9532C26.3396 58.2517 24.4697 60.1215 22.1712 60.1215ZM4.16885 37.4209C3.8767 37.4209 3.63881 37.6587 3.63881 37.951V55.9532C3.63881 56.2456 3.8767 56.4832 4.16885 56.4832H22.1712C22.4633 56.4832 22.7012 56.2455 22.7012 55.9532V37.9511C22.7012 37.6587 22.4633 37.421 22.1712 37.421H4.16885V37.4209Z" fill="#F38D04"/>
</g>
<defs>
<clipPath id="clip0_250_286">
<rect width="60" height="60" fill="white" transform="translate(0 0.121582)"/>
</clipPath>
</defs>
</svg>
