<svg width="64" height="65" viewBox="0 0 64 65" fill="none" xmlns="http://www.w3.org/2000/svg">
<g clip-path="url(#clip0_250_300)">
<path d="M36.0461 53.36C31.251 53.36 26.7429 51.4926 23.3522 48.102C19.9616 44.7114 18.0942 40.2034 18.0942 35.4081C18.0942 30.6131 19.9616 26.1049 23.3522 22.7143C30.3516 15.7149 41.7406 15.7149 48.7399 22.7143C53.4105 27.3849 55.1374 34.2215 53.247 40.5563C52.9574 41.5264 51.9362 42.0781 50.9662 41.7886C49.9961 41.499 49.4444 40.4779 49.7339 39.5079C51.2387 34.4654 49.8644 29.0239 46.1475 25.3066C40.5775 19.7368 31.5147 19.7368 25.9449 25.3066C23.2466 28.0049 21.7607 31.5923 21.7607 35.408C21.7607 39.2238 23.2467 42.8111 25.9449 45.5094C28.6431 48.2076 32.2305 49.6935 36.0462 49.6935C39.862 49.6935 43.4494 48.2075 46.1476 45.5094C46.8635 44.7935 48.0242 44.7935 48.7402 45.5094C49.4562 46.2253 49.4561 47.386 48.7402 48.102C45.3492 51.4925 40.8412 53.36 36.0461 53.36Z" fill="#F38D04"/>
<path d="M36.0459 43.1089C33.9889 43.1089 32.0551 42.308 30.6005 40.8534C27.598 37.8509 27.598 32.9654 30.6005 29.9629C32.0549 28.5085 33.9888 27.7074 36.0459 27.7074C38.1029 27.7074 40.0366 28.5083 41.491 29.9629C44.4935 32.9654 44.4935 37.8508 41.491 40.8534C40.0366 42.3078 38.1028 43.1089 36.0459 43.1089Z" fill="#FDEEDA"/>
<path d="M36.0461 44.942C33.4994 44.942 31.1052 43.9503 29.3044 42.1498C25.5873 38.4325 25.5873 32.384 29.3044 28.6668C31.1053 26.866 33.4994 25.8745 36.0461 25.8745C38.5928 25.8745 40.9869 26.8663 42.7874 28.6669C46.5046 32.384 46.5046 38.4324 42.7874 42.1496C40.9869 43.9502 38.5928 44.942 36.0461 44.942ZM36.0461 29.5404C34.4787 29.5404 33.0052 30.1506 31.8969 31.259C29.6093 33.5468 29.6093 37.2694 31.8969 39.5571C33.0051 40.6652 34.4786 41.2758 36.0459 41.2758C37.6133 41.2758 39.0868 40.6655 40.1949 39.5571C42.4827 37.2694 42.4827 33.5468 40.1949 31.259C39.0868 30.1509 37.6133 29.5404 36.0461 29.5404Z" fill="#F38D04"/>
<path d="M21.6673 18.0931H21.6672C21.0397 18.0931 20.4513 17.8138 20.0526 17.3273C19.6552 16.8421 19.4981 16.2103 19.6215 15.5946L19.8285 14.5636L17.947 12.6522L16.8912 12.8641C16.7556 12.8912 16.6168 12.9051 16.479 12.9051C15.7815 12.9051 15.1331 12.5581 14.7446 11.9768C14.3567 11.3963 14.2846 10.6643 14.5521 10.0188L16.0628 6.37321C16.3325 5.72121 16.9085 5.25283 17.6032 5.12133L19.7617 4.71308C20.9003 2.99896 21.4542 2.37396 21.779 2.05008C23.061 0.770457 25.1468 0.121582 27.9786 0.121582C29.0615 0.121582 29.9666 0.218707 30.4097 0.276457C31.3508 0.399832 32.0906 1.14296 32.2093 2.08396C32.4423 3.93083 32.7301 8.47371 30.3732 10.7685C29.8865 11.2423 29.0328 11.884 27.7726 12.7221L27.364 14.8825C27.2326 15.5772 26.7642 16.1532 26.111 16.4235L22.4671 17.9336C22.2115 18.0395 21.9425 18.0931 21.6673 18.0931ZM18.9795 8.91208C19.349 9.00521 19.6916 9.19846 19.9611 9.47246L23.0288 12.5886C23.2862 12.85 23.4661 13.1693 23.5578 13.5128L23.9201 13.3627L24.2946 11.3826C24.3998 10.8258 24.7327 10.3295 25.2077 10.0206C27.0478 8.82496 27.6443 8.30846 27.8153 8.14183C28.5082 7.46721 28.753 5.62383 28.6767 3.80421C28.459 3.79408 28.2241 3.78783 27.9783 3.78783C26.256 3.78783 24.9063 4.10846 24.3685 4.64521C24.2002 4.81333 23.6777 5.40558 22.4651 7.27583C22.1563 7.75196 21.6596 8.08558 21.102 8.19108L19.1227 8.56546L18.9795 8.91208Z" fill="#F38D04"/>
<path d="M35.9923 64.1216C28.2204 64.1216 20.914 61.0951 15.4186 55.5996C10.5332 50.7142 7.53983 44.2361 6.9897 37.3584C6.44595 30.5593 8.30658 23.7658 12.2288 18.2297C12.8142 17.4037 13.9582 17.2084 14.7842 17.7936C15.6105 18.3789 15.8056 19.5229 15.2203 20.3489C8.0437 30.4787 9.21733 44.2134 18.011 53.0071C22.814 57.8101 29.1999 60.4553 35.9923 60.4553C42.7847 60.4553 49.1707 57.8101 53.9734 53.0071C54.6893 52.2912 55.8501 52.2912 56.566 53.0071C57.2818 53.7229 57.2818 54.8837 56.566 55.5997C51.0707 61.0951 43.7642 64.1216 35.9923 64.1216Z" fill="#F38D04"/>
</g>
<defs>
<clipPath id="clip0_250_300">
<rect width="64" height="64" fill="white" transform="translate(0 0.121582)"/>
</clipPath>
</defs>
</svg>
